PathFileType	4	(X/Y/Z)	C:/Users/beibeiliu/ov580/test_trc/capture2\sequence.29_training_dense_right.trc
DataRate	CameraRate	NumFrames	NumMarkers	Units	OrigDataRate	OrigDataStartFrame	OrigNumFrames
120	120	18	19	mm	120	43	340
Frame#	Time	ThumbCMC			ThumbMCP			ThumbIP			ThumbTip			IndexMCP			IndexPIP			IndexTip			MiddleMCP			MiddlePIP			MiddleTip			RingMCP			RingPIP			RingTip			PinkyMCP			PinkyPIP			PinkyTip			BackHand1			BackHand2			BackHand3	
		X0	Y0	Z0	X1	Y1	Z1	X2	Y2	Z2	X3	Y3	Z3	X4	Y4	Z4	X5	Y5	Z5	X6	Y6	Z6	X7	Y7	Z7	X8	Y8	Z8	X9	Y9	Z9	X10	Y10	Z10	X11	Y11	Z11	X12	Y12	Z12	X13	Y13	Z13	X14	Y14	Z14	X15	Y15	Z15	X16	Y16	Z16	X17	Y17	Z17	X18	Y18	Z18	
42	0.35	95.5213	44.8682	36.4584	80.5554	38.6784	16.5572	67.0819	43.4692	-9.81322	54.2907	46.3214	-28.6793	103.835	48.2092	-40.0938	103.374	30.7836	-56.5417	107.244	6.522	-69.944	132.294	62.0826	-45.4542	134.854	50.2866	-67.5033	135.469	23.7221	-89.6015	150.357	63.7554	-35.6322	156.39	56.4279	-63.4946	154.473	36.5001	-83.5552	175.36	57.0964	-17.7201	186.508	56.8678	-39.5482	196.003	51.631	-66.0362	148.64	69.1235	18.5905	149.718	67.3965	43.1761	116.621	68.4845	25.9455	
43	0.358333	92.2383	44.9572	37.0242	81.5383	39.0262	15.3129	68.2861	42.2612	-7.8257	57.4745	44.5228	-25.6836	105.84	50.0248	-36.201	101.872	24.8474	-57.6809	107.775	2.48886	-66.3588	130.308	62.2168	-40.3275	130.264	52.4434	-68.7936	133.523	35.1614	-92.3934	151.476	65.3241	-33.736	156.254	59.3031	-64.3048	161.494	44.7725	-86.3709	176.034	58.3428	-19.2629	184.072	57.8136	-39.9724	198.153	58.1435	-61.2283	147.647	68.9382	18.7139	148.384	68.7816	43.643	119.805	68.3691	29.9754	
44	0.366667	96.1866	44.6688	33.4799	81.5961	37.9965	15.6948	67.7923	39.9304	-7.33438	55.6267	41.7052	-26.856	103.378	47.5857	-40.3036	102.021	26.9627	-55.0459	112.535	-0.310598	-64.8183	129.184	62.765	-43.7292	133.949	54.4183	-69.475	134.855	41.7897	-95.8518	152.735	65.6788	-37.8494	156.865	63.0513	-64.2813	162.61	53.136	-87.6293	171.799	57.0769	-20.9324	186.776	57.8004	-40.1414	196.559	62.8599	-59.5251	148.856	71.0819	14.3169	148.97	66.574	46.7616	117.264	68.8516	30.0083	
45	0.375	95.4487	44.2733	33.7792	79.2676	36.2304	12.6193	63.9661	36.6223	-9.29788	52.8733	35.8901	-29.512	106.467	51.2421	-36.9585	101.695	27.3745	-54.9951	109.087	-1.24209	-64.9444	128.334	64.618	-42.8188	130.237	58.0794	-66.6042	136.041	48.1346	-96.0904	150.459	65.3541	-33.3671	157.308	65.066	-62.5991	162.523	61.0908	-87.7558	176.36	57.8887	-20.8677	183.577	57.2223	-37.1748	203.179	64.9319	-53.9603	146.498	68.9459	16.3535	151.646	68.5129	47.3588	114.945	70.0611	26.8462	
46	0.383333	91.4798	42.8581	33.1138	80.4637	30.8411	12.9477	64.9802	26.1019	-12.8145	59.8393	22.5087	-29.0446	101.739	51.1443	-37.0686	103.37	30.7892	-57.5287	109.922	2.07359	-69.6941	129.82	65.9053	-41.7519	130.846	61.2951	-68.6312	135.992	55.2066	-95.907	150.394	66.6084	-33.1544	157.276	67.4838	-61.249	163.106	66.0336	-86.8716	178.603	57.6407	-20.7078	190.728	56.7428	-39.1842	200.393	63.8998	-54.4005	151.532	68.6705	12.7849	151.182	69.4013	42.5415	118.91	70.4056	27.1797	
47	0.391667	94.9677	42.1784	34.6347	78.1973	24.7804	12.3678	67.0519	16.7062	-10.2937	67.1411	11.192	-33.5229	100.245	53.636	-36.366	102.544	35.3509	-61.4504	101.964	12.6206	-75.2088	132.814	67.281	-43.2967	132.729	64.415	-71.3189	134.502	61.8653	-98.8035	152.482	66.1089	-32.7958	161.665	68.0958	-61.1512	164.644	68.4813	-83.92	176.851	54.8591	-20.8281	185.84	54.2128	-38.7448	200.552	61.9699	-52.4199	151.182	70.0434	16.3093	147.819	69.0647	46.3383	117.353	70.2565	30.1892	
48	0.4	92.0904	40.3291	32.5205	79.5907	19.8155	13.111	72.013	8.97694	-13.3805	71.9835	1.27486	-31.5581	101.62	54.5731	-42.8017	95.9645	41.4767	-60.3584	101.836	22.7384	-80.1613	133.414	67.9378	-43.4516	132.26	66.7048	-68.4673	135.73	66.813	-96.7847	151.199	66.4946	-34.8344	159.798	67.5061	-56.7236	168.341	69.8802	-86.7402	176.395	52.0875	-19.3188	190.628	50.3672	-35.3609	201.007	57.1367	-52.0799	150.735	68.0858	17.4787	150.022	69.4457	43.3391	117.067	70.75	28.1041	
49	0.408333	94.891	40.2538	29.4601	83.5757	17.41	6.41532	76.7411	4.47802	-12.3412	81.1574	-3.81495	-36.1227	103.403	57.3055	-39.2873	98.023	43.117	-65.9859	99.0038	27.7346	-86.9689	129.847	68.6205	-39.4436	137.35	69.2149	-70.1707	138.122	70.2845	-93.8552	156.105	65.0543	-35.4169	158.648	67.1791	-57.4032	168.101	70.6545	-84.8465	173.97	50.6025	-20.3815	189.88	45.5673	-36.4212	200.971	51.932	-51.7167	151.106	68.2435	14.62	147.539	67.0828	42.6062	118.295	72.0002	27.7852	
50	0.416667	91.6306	38.9379	27.1618	83.4164	14.1555	7.67956	81.6262	2.65147	-14.2745	88.0028	-5.81036	-39.7313	100.497	61.0103	-40.5329	95.3596	50.7136	-64.9296	96.2765	38.8394	-86.7172	131.381	71.3573	-43.7811	133.507	71.3984	-65.9032	142.934	74.2346	-92.894	156.925	64.4675	-34.6871	161.295	65.8247	-56.5191	170.332	69.2894	-83.9194	175.209	47.5615	-22.4045	185.08	43.5945	-40.4611	203.853	42.5767	-53.5576	148.746	68.0754	11.6836	148.082	68.4409	41.6109	119.929	70.5136	28.268	
51	0.425	91.0061	38.9816	30.5588	87.4145	15.8098	4.3016	87.1528	3.00079	-16.0222	95.8454	-4.69923	-40.2281	104.226	64.5123	-37.4096	98.7577	56.2965	-61.886	93.4063	46.9013	-87.3366	133.269	71.6527	-37.8743	135.65	74.2311	-63.7943	139.428	79.7073	-93.8485	158.006	63.2028	-33.0048	159.851	66.2211	-60.6045	169.872	68.1624	-84.0799	175.402	45.4172	-24.2013	186.194	36.8128	-37.444	201.149	35.3078	-60.4365	150.423	67.6446	12.481	152.478	66.2751	43.8854	118.674	72.771	27.7555	
52	0.433333	91.5649	41.3385	28.3221	86.1803	14.7724	5.1207	89.6707	3.41515	-18.5826	96.5465	-5.26356	-39.4688	104.585	65.992	-41.0938	95.361	60.7115	-64.8012	97.1832	53.0138	-91.5271	136.738	74.2494	-40.133	136.24	76.5911	-63.8726	145.705	81.2676	-91.4671	155.555	62.8925	-36.7197	161.3	62.6486	-59.2801	169.468	64.5303	-85.0533	173.518	42.7518	-23.6249	182.011	32.1103	-42.0514	193.248	23.9228	-61.8548	153.767	66.7698	14.2572	148.618	64.9998	46.3488	121.975	71.4385	27.3247	
53	0.441667	92.306	42.0892	28.3398	84.8337	15.4568	5.15943	87.294	3.10203	-16.9027	99.2448	-5.1241	-43.0608	105.594	68.8709	-37.2777	100.606	65.1299	-61.3733	99.0211	60.2386	-86.8203	134.984	75.0161	-37.9301	142.027	79.6694	-66.2189	149.187	83.3078	-89.2971	159.082	61.5962	-37.2802	164.179	60.2332	-58.5997	166.276	60.3864	-87.3166	174.367	39.232	-22.3598	180.897	24.5692	-39.7491	183.216	13.4335	-62.388	153.8	66.6663	16.857	149.911	65.38	45.0291	119.825	74.4723	26.8641	
54	0.45	95.1986	42.0661	28.8442	88.4938	17.3926	7.31029	88.2641	4.39946	-19.7526	96.7727	-3.83532	-38.4463	106.131	71.5444	-40.1689	97.7542	69.3958	-64.7825	97.0993	67.2913	-86.1302	137.411	75.9425	-38.8785	142.935	80.3294	-65.83	146.85	84.6077	-88.0028	156.142	60.3861	-37.7856	165.345	56.6519	-58.9788	166.98	53.2595	-84.4004	172.688	36.8747	-26.5211	173.077	19.0129	-43.8522	168.406	-3.15589	-62.6077	151.341	65.9161	13.9626	151.389	63.8149	46.0828	120.514	74.8299	25.0158	
55	0.458333	95.4004	42.8139	28.5318	88.4314	19.4843	4.0763	85.8713	6.06505	-17.0853	98.5148	-1.4235	-40.6977	104.225	73.3775	-36.532	100.086	72.6723	-61.6394	97.7972	72.7845	-83.7877	138.292	75.9582	-36.5583	143.095	80.1681	-62.0284	151.48	85.1515	-90.1573	158.322	58.1782	-33.6789	158.614	53.3674	-63.1682	165.35	42.0324	-86.7543	169.322	36.6929	-23.8182	167.095	12.7968	-41.5301	150.265	-5.63404	-53.0591	153.425	66.8082	15.0257	150.455	62.6176	47.4035	118.181	74.1836	26.8312	
56	0.466667	93.5757	44.1459	28.8985	85.4497	19.4856	5.00597	85.0034	9.2514	-19.053	94.2906	1.08225	-40.7361	106.212	75.2968	-35.8614	98.2021	76.2152	-56.8284	96.176	78.3381	-84.1893	137.683	75.8799	-35.0687	144.399	78.3644	-59.0339	149.875	83.2149	-87.4139	152.873	57.3121	-34.1846	159.515	46.1117	-61.8028	157.139	28.3867	-82.7291	164.055	35.4216	-25.0903	158.142	9.13398	-37.2202	134.114	-9.86384	-33.069	153.317	64.7962	18.2281	149.773	63.5397	47.3759	121.113	73.2166	27.9127	
57	0.475	91.3708	43.9856	30.731	82.4931	21.0712	3.17871	79.9735	9.09483	-22.4536	91.2455	3.899	-38.6201	103.112	77.7796	-31.546	99.1467	81.0052	-57.2503	97.6096	82.3307	-83.7324	138.505	75.5533	-34.8202	143.005	80.6089	-62.2146	150.483	81.5683	-87.1201	153.173	54.5016	-34.4617	152.773	41.2981	-60.8098	141.345	18.6645	-78.872	162.231	30.3883	-26.3558	145.726	9.95778	-33.0811	118.577	-3.82529	-17.0179	149.108	66.648	18.0934	149.662	62.9162	44.8728	120.81	73.2767	29.0308	
58	0.483333	91.1679	45.2167	28.9778	80.1329	21.6367	7.56896	74.8114	11.2239	-17.1571	89.1532	4.94268	-40.1502	104.825	78.5007	-30.6486	95.8141	84.673	-56.4352	95.4826	87.1635	-80.0714	136.617	75.4872	-32.9401	145.261	78.7173	-63.1533	146.864	80.2122	-92.1398	146.517	54.0074	-36.4052	147.065	32.1296	-60.0585	133.14	9.7729	-69.6219	157.802	29.0112	-24.4318	138.722	6.50601	-26.1027	114.965	-0.210176	-5.5067	151.446	63.3486	19.003	149.448	61.0481	50.1863	119.979	73.2309	31.8764	
59	0.491667	91.2358	45.8692	30.7559	75.7676	23.8994	7.52844	78.5047	14.9385	-18.9411	85.3587	7.43131	-38.8243	101.514	81.1201	-28.8107	99.0413	85.9646	-53.8566	100.435	90.2924	-80.0244	136.401	76.2179	-36.5726	142.2	77.5507	-63.8336	145.23	73.7379	-90.2755	147.427	51.1344	-37.5099	141.785	28.5188	-58.6567	126.024	2.48234	-58.8641	155.569	28.8887	-22.8872	136.008	5.60908	-21.8654	114.662	6.04554	-0.473917	149.537	64.2554	14.2826	148.935	61.0068	49.5741	120.967	73.8764	33.0866	
